/* XPM */
static char * x42_mixtri_32x32_xpm[] = {
"32 32 93 2",
"  	c None",
". 	c #3D3D3D",
"+ 	c #9191C3",
"@ 	c #8585B3",
"# 	c #686888",
"$ 	c #FFFFFF",
"% 	c #60607D",
"& 	c #7A7AA5",
"* 	c #515167",
"= 	c #333335",
"- 	c #353537",
"; 	c #414150",
"> 	c #74749C",
", 	c #DFDFED",
"' 	c #646484",
") 	c #2C2C2F",
"! 	c #292929",
"~ 	c #303030",
"{ 	c #4F4F66",
"] 	c #8D8DBD",
"^ 	c #7B7B81",
"/ 	c #272727",
"( 	c #2E2E2E",
"_ 	c #4E4E55",
": 	c #E9E9EB",
"< 	c #EAEAF3",
"[ 	c #5C5C7A",
"} 	c #282829",
"| 	c #262626",
"1 	c #282828",
"2 	c #464658",
"3 	c #8B8BBA",
"4 	c #9393C4",
"5 	c #3C3C4A",
"6 	c #242425",
"7 	c #252525",
"8 	c #2E2E35",
"9 	c #69698C",
"0 	c #73739B",
"a 	c #4B4B62",
"b 	c #49494F",
"c 	c #434355",
"d 	c #8F8FC1",
"e 	c #8F8FC0",
"f 	c #8B8BBC",
"g 	c #8282AF",
"h 	c #656584",
"i 	c #78787D",
"j 	c #6B6B82",
"k 	c #7A7A9B",
"l 	c #8888B7",
"m 	c #54546C",
"n 	c #2C2C30",
"o 	c #2E2E2F",
"p 	c #32323A",
"q 	c #68688B",
"r 	c #8E8EC0",
"s 	c #E8E8F2",
"t 	c #9494C4",
"u 	c #36363E",
"v 	c #2D2D2F",
"w 	c #434353",
"x 	c #8181AE",
"y 	c #F9F9FA",
"z 	c #A1A1A8",
"A 	c #29292B",
"B 	c #393939",
"C 	c #282827",
"D 	c #48484E",
"E 	c #C6C6CB",
"F 	c #9E9EA4",
"G 	c #6C6C90",
"H 	c #242424",
"I 	c #272728",
"J 	c #3D3D4B",
"K 	c #8585B2",
"L 	c #9494C5",
"M 	c #4B4B63",
"N 	c #2B2B30",
"O 	c #272729",
"P 	c #35353E",
"Q 	c #5F5F7C",
"R 	c #9090C2",
"S 	c #575772",
"T 	c #626269",
"U 	c #4E4E64",
"V 	c #6A6A8D",
"W 	c #8A8AB9",
"X 	c #F0F0F1",
"Y 	c #8989B9",
"Z 	c #3D3D4C",
"` 	c #8787B6",
" .	c #383846",
". . . . . . . . . . . . . . . . . . . . . . . . . . . . . . . . ",
". + + + + + + + + + + + + + + + + + + + + + + + + + + + + + + . ",
". + + + + + + + + + + + + + + + + + + + + + + + + + + + + + + . ",
". + + + + + + + + + + + + + + + + + + + + + + + + + + + + + + . ",
". + + + + + + + + @ # $ % & + + + + + + @ # $ % & + + + + + + . ",
". $ + + + + + + @ * = $ - ; > + + + + @ * = $ - ; > + + + + + . ",
". $ , + + + + + ' ) ! $ ~ ! { ] + + + ' ) ! $ ~ ! { ] + + + + . ",
". $ $ $ $ $ $ $ ^ ! / $ ( / _ : $ $ $ ^ ! / $ ( / _ : $ $ $ $ . ",
". $ < + + + + + [ } | 1 | | 2 3 + + + [ } | 1 | | 2 3 + + + + . ",
". $ 4 + + + + + & 5 6 | 7 8 9 + + + + & 5 6 | 7 8 9 + + + + + . ",
". + + + + + + + + 0 a b c 9 d + + + + + 0 a b c 9 d + + + + + . ",
". + + + + + + + + + ] : 3 + e f 3 + + + + ] : 3 + + + + + + + . ",
". + + + + + + + + + + $ + + + + + + + + + ] : 3 + + + + + + + . ",
". + + + + + + + + g h i j k l + + + + + > { _ 2 9 d + + + + + . ",
". $ + + + + + + @ m n o p $ q r + + + & ; ! / | 8 9 + + + + + . ",
". $ s t + + + + 9 u 7 ( $ v w x + + + % - ~ ( | 7 c 3 + + + + . ",
". $ $ $ $ $ $ y z A | $ B C D E $ $ $ F p ( $ 1 | b : $ $ $ $ . ",
". $ s + + + + + G 8 H 7 / I J K + + + # = $ / | 6 a ] + + + + . ",
". $ L + + + + + g M N | O P Q R + + + @ $ ) ! } 5 0 + + + + + . ",
". + + + + + + + + g S T U V W + + + + + @ ' ^ [ & + + + + + + . ",
". + + + + + + + + + + X Y + + + + + + + + + $ + + + + + + + + . ",
". + + + + + + + + + + $ + + + + + + + + + + $ + + + + + + + + . ",
". + + + + + + + + + + $ + + + + + + + + + + $ + + + + + + + + . ",
". + + + + + + + + @ # F % & + + + + + + @ # F % & + + + + + + . ",
". + + + + + + + @ $ = ( - ; > + + + + @ * = p - ; > + + + + + . ",
". + + + + + + + ' ) $ ( ~ ! { ] + + + ' ) ! ( ~ ! { ] + + + + . ",
". + + + + + + + m ! / $ ( / Z ` + + + m ! / $ $ $ $ ` + + + + . ",
". + + + + + + + [ } | 1 | | 2 3 + + + [ } | 1 | | 2 3 + + + + . ",
". + + + + + + + & 5 6 | 7 8 9 + + + + & 5 6 | 7 8 9 + + + + + . ",
". + + + + + + + + 0 a  .c 9 d + + + + + 0 a  .c 9 d + + + + + . ",
". + + + + + + + + + + + + + + + + + + + + + + + + + + + + + + . ",
". . . . . . . . . . . . . . . . . . . . . . . . . . . . . . . . "};
